<?xml version="1.0" encoding="utf-8"?>
<!-- Generator: Adobe Illustrator 25.2.3, SVG Export Plug-In . SVG Version: 6.00 Build 0)  -->
<svg version="1.1" id="Layer_1" xmlns="http://www.w3.org/2000/svg" xmlns:xlink="http://www.w3.org/1999/xlink" x="0px" y="0px"
	 viewBox="0 0 916 209" style="enable-background:new 0 0 916 209;" xml:space="preserve">
<style type="text/css">
	.st0{fill:#D68326;}
	.st1{fill:#3CB4E5;}
	.st2{fill:#0B74B7;}
	.st3{fill:#0475BC;}
</style>
<g>
	<path class="st0" d="M223.49,162.95h15.79v31.63h6.88v-31.63h15.79v-6.87h-38.45V162.95z M267.12,166.42v17.71
		c0,5.72,4.62,10.4,10.34,10.4h28.11v-6.88h-28.11c-1.93,0-3.52-1.6-3.52-3.52v-7.26h24.75v-6.88h-24.75v-3.58
		c0-1.93,1.6-3.52,3.52-3.52h28.11v-6.87h-28.11C271.74,156.02,267.12,160.7,267.12,166.42z M345.23,166.47
		c0-2.86-1.16-5.45-3.02-7.32c-1.87-1.87-4.46-3.02-7.32-3.02h-24.31v38.51h6.88v-17.71h6.88c2.47,0,4.62,1.32,5.83,3.3l0.16,0.33
		l3.69,7.21l3.52,6.88h7.7l-3.52-6.88l-5.5-11c1.05-0.11,2.04-0.38,2.97-0.82C342.75,174.28,345.23,170.65,345.23,166.47z
		 M336.32,169.72c-0.44,0.22-0.94,0.33-1.43,0.33l-17.44,0.05v-7.1h17.44c1.21,0,2.03,0.55,2.47,0.99c0.39,0.38,1.05,1.27,1.05,2.53
		C338.41,167.9,337.58,169.17,336.32,169.72z M369.6,170.82l-12.38-9.52l-6.88-5.28v38.5h6.88v-24.53l6.77,5.17l5.61,4.35l5.61-4.35
		l6.77-5.17v24.53h6.88v-38.5l-6.88,5.28L369.6,170.82z M393.92,194.53h6.88v-38.5h-6.88V194.53z M437.48,180.55l-24.75-19.09
		l-6.88-5.28v38.4h6.88v-24.37l24.75,19.09l6.88,5.28v-38.5l-6.88-0.05V180.55z M466.86,156.02l-16.12,31.63l-3.52,6.88h7.7
		l3.52-6.88l1.23-2.42h14.37l1.23,2.42l3.52,6.88h7.7l-3.52-6.88L466.86,156.02z M462.73,179.24l4.12-8.09l4.13,8.09H462.73z
		 M496.23,182.98v-26.9h-6.87v26.24c0,1.93,0.44,3.74,1.26,5.39c1.15,2.42,3.14,4.4,5.56,5.61c1.65,0.83,3.47,1.27,5.39,1.27h19.53
		v-6.88l-20.19-0.05C498.49,187.32,496.56,185.39,496.23,182.98z M578.97,159.05c-1.87-1.87-4.46-3.02-7.32-3.02H547.4v38.5h6.88
		v-17.71h18.43v-0.06h0.33c1.04-0.11,2.03-0.38,2.97-0.82c3.58-1.65,6.05-5.28,6.05-9.46c0-2.86-1.16-5.45-3.03-7.32L578.97,159.05z
		 M573.14,169.66v0.05c-0.44,0.22-0.94,0.33-1.43,0.33h-17.44v-7.1h17.44c1.21,0,2.04,0.55,2.48,0.99c0.38,0.39,1.04,1.27,1.04,2.53
		C575.23,167.85,574.4,169.11,573.14,169.66z M587.11,166.42v17.71c0,5.72,4.62,10.4,10.34,10.4h28.11v-6.88h-28.11
		c-1.93,0-3.52-1.6-3.52-3.52v-7.26h24.75v-6.88h-24.75v-3.58c0-1.93,1.6-3.52,3.52-3.52h28.11v-6.87h-28.11
		C591.73,156.02,587.11,160.7,587.11,166.42z M630.63,162.95h15.79v31.63h6.88v-31.63h15.79v-6.87h-38.45V162.95z M674.19,194.53
		h6.87v-38.5h-6.87V194.53z M714.46,156.02l-10.73,9.84l-5.12,4.68l-5.67,5.17v-19.69h-6.88v38.5h6.88v-9.52l9.74-8.86L716,194.53
		h8.47l-16.67-23.05l16.83-15.46H714.46z M729.75,166.42v17.71c0,5.72,4.62,10.4,10.34,10.4h28.11v-6.88h-28.11
		c-1.93,0-3.52-1.6-3.52-3.52v-7.26h24.76v-6.88h-24.76v-3.58c0-1.93,1.6-3.52,3.52-3.52h28.11v-6.87h-28.11
		C734.37,156.02,729.75,160.7,729.75,166.42z M792.52,170.82l-12.38-9.52l-6.88-5.28v38.5h6.88v-24.53l6.77,5.17l5.61,4.35
		l5.61-4.35l6.77-5.17v24.53h6.88v-38.5l-6.88,5.28L792.52,170.82z M834.27,156.02l-16.12,31.63l-3.52,6.88h7.7l3.52-6.88l1.23-2.42
		h14.37l1.23,2.42l3.52,6.88h7.7l-3.52-6.88L834.27,156.02z M830.15,179.24l4.12-8.09l4.12,8.09H830.15z M893.19,166.64v-0.22
		c0-5.72-4.68-10.4-10.4-10.4h-15.62c-5.72,0-10.34,4.67-10.34,10.4v0.22c0,2.2,0.66,4.24,1.82,5.89c0.38,0.61,0.82,1.16,1.32,1.65
		c1.87,1.82,4.4,2.92,7.21,2.92h13.86c2.92,0,5.33,2.36,5.33,5.28c0,2.91-2.42,5.28-5.33,5.28h-12.05c-2.92,0-5.28-2.37-5.28-5.28
		h-6.87c0,6.71,5.45,12.16,12.16,12.16h12.05c6.71,0,12.16-5.45,12.16-12.16c0-2.92-1.05-5.61-2.75-7.7
		c-0.16-0.17-0.28-0.33-0.44-0.5c-2.2-2.42-5.39-3.96-8.97-3.96h-13.86c-1.93,0-3.52-1.6-3.52-3.52v-0.22c0-1.93,1.6-3.52,3.52-3.52
		h15.62c1.93,0,3.52,1.6,3.52,3.52v0.22L893.19,166.64z"/>
	<g>
		<g>
			<rect x="36.5" y="154.98" class="st1" width="39.52" height="39.52"/>
			<path class="st1" d="M76.02,115.46H36.5V95.94c0-44.98,36.59-81.58,81.58-81.58h26.02l0,39.52h-26.02
				c-23.19,0-42.05,18.87-42.05,42.05V115.46z"/>
			<rect x="20.51" y="115.46" class="st2" width="16" height="39.52"/>
			<path class="st3" d="M102.04,154.98H76.02v-39.52h26.02c23.23,0,42.05-18.83,42.05-42.05V14.36h33.85c3.13,0,5.67,2.54,5.67,5.67
				V73.4C183.61,118.45,147.09,154.98,102.04,154.98"/>
		</g>
		<g>
			<path class="st3" d="M306.28,24.86c4.89,6.26,7.92,14.91,7.92,24.48c0,13.99-6.48,22.13-15.84,27.65
				c-2.45,1.47-5.04,2.39-7.78,2.76h-0.86v0.18h-48.23v35.36h-18V14.36h63.49c7.49,0,14.25,3.86,19.15,10.12L306.28,24.86z
				 M290.87,60c3.31-1.84,5.47-8.07,5.47-12.67c0-4.23-1.73-9.18-2.73-10.46c-1.15-1.47-3.31-3.31-6.48-3.31h-45.64v27.74h45.64
				c1.3,0,2.59-0.37,3.74-1.1V60z"/>
			<path class="st3" d="M343.84,41.58v9.36h64.79v18h-64.79v19c0,5.04,4.18,9.21,9.21,9.21h73.57v18h-73.57
				c-14.97,0-27.07-12.24-27.07-27.21V41.58c0-14.97,12.09-27.21,27.07-27.21h73.57v18h-73.57
				C348.02,32.36,343.84,36.53,343.84,41.58"/>
			<path class="st3" d="M521.21,97.29v18H470.1c-5.04,0-9.79-1.15-14.11-3.31c-6.33-3.17-11.52-8.35-14.54-14.69
				c-2.16-4.32-3.31-9.07-3.31-14.11V14.51h18v70.4c0.86,6.33,5.9,11.37,12.24,12.24L521.21,97.29z"/>
			<rect x="535.59" y="14.36" class="st3" width="18" height="100.78"/>
			<polygon class="st3" points="668.76,14.51 668.76,115.29 650.77,101.47 585.98,51.51 585.98,115.29 567.98,115.29 567.98,14.8 
				585.98,28.62 650.77,78.58 650.77,14.36 			"/>
			<path class="st3" d="M733.39,14.51c27.79,0,50.39,22.46,50.39,50.25c0,12.38-4.46,23.75-11.95,32.54
				c-0.86,1.01-1.87,2.02-2.88,3.03c-9.07,9.21-21.59,14.83-35.42,14.83h-50.39V14.36L733.39,14.51z M701,97.29h32.39
				c17.85,0,32.39-14.54,32.39-32.39s-14.54-32.39-32.39-32.39H701V97.29z"/>
			<path class="st3" d="M895.49,64.75c0,27.79-22.6,50.39-50.39,50.39s-50.39-22.6-50.39-50.39s22.6-50.39,50.39-50.39
				S895.49,36.97,895.49,64.75 M877.5,64.75c0-17.85-14.54-32.39-32.4-32.39c-17.85,0-32.39,14.54-32.39,32.39
				s14.54,32.39,32.39,32.39C862.96,97.15,877.5,82.61,877.5,64.75"/>
		</g>
	</g>
</g>
</svg>
